<?xml version="1.0" encoding="UTF-8" standalone="no"?>
<!DOCTYPE svg PUBLIC "-//W3C//DTD SVG 1.1//EN"
 "http://www.w3.org/Graphics/SVG/1.1/DTD/svg11.dtd">
<!-- Generated by graphviz version 2.43.0 (0)
 -->
<!-- Title: %3 Pages: 1 -->
<svg width="1386pt" height="238pt"
 viewBox="0.00 0.00 1385.50 237.74" xmlns="http://www.w3.org/2000/svg" xmlns:xlink="http://www.w3.org/1999/xlink">
<g id="graph0" class="graph" transform="scale(1 1) rotate(0) translate(36 201.74)">
<title>%3</title>
<polygon fill="dimgray" stroke="transparent" points="-36,36 -36,-201.74 1349.5,-201.74 1349.5,36 -36,36"/>
<text text-anchor="middle" x="656.75" y="-150.54" font-family="Helvetica,sans-Serif" font-size="14.00">Sweep&#39;s Plan &amp; Progress</text>
<!-- start -->
<g id="node1" class="node">
<title>start</title>
</g>
<!-- 733cdc67&#45;3660&#45;4b65&#45;8eff&#45;fff1cc66499e -->
<g id="node3" class="node">
<title>733cdc67&#45;3660&#45;4b65&#45;8eff&#45;fff1cc66499e</title>
<ellipse fill="#0ee832" stroke="black" cx="263.5" cy="-99.87" rx="185.94" ry="26.74"/>
<text text-anchor="middle" x="263.5" y="-103.67" font-family="Helvetica,sans-Serif" font-size="14.00">✓ Modify</text>
<text text-anchor="middle" x="263.5" y="-88.67" font-family="Helvetica,sans-Serif" font-size="14.00">src/components/Chat/ChatInput.tsx</text>
</g>
<!-- start&#45;&gt;733cdc67&#45;3660&#45;4b65&#45;8eff&#45;fff1cc66499e -->
<g id="edge6" class="edge">
<title>start&#45;&gt;733cdc67&#45;3660&#45;4b65&#45;8eff&#45;fff1cc66499e</title>
<path fill="none" stroke="black" d="M26.18,-99.87C29.58,-99.87 45.37,-99.87 67.32,-99.87"/>
<polygon fill="black" stroke="black" points="67.45,-103.37 77.45,-99.87 67.45,-96.37 67.45,-103.37"/>
<text text-anchor="middle" x="51.77" y="-106.67" font-family="Helvetica,sans-Serif" font-size="14.00">Start</text>
</g>
<!-- end -->
<g id="node2" class="node">
<title>end</title>
</g>
<!-- a0facefe&#45;9647&#45;45a1&#45;a49b&#45;471ee730a370 -->
<g id="node4" class="node">
<title>a0facefe&#45;9647&#45;45a1&#45;a49b&#45;471ee730a370</title>
<ellipse fill="white" stroke="black" cx="681.5" cy="-99.87" rx="159.61" ry="26.74"/>
<text text-anchor="middle" x="681.5" y="-103.67" font-family="Helvetica,sans-Serif" font-size="14.00">▶ Modify</text>
<text text-anchor="middle" x="681.5" y="-88.67" font-family="Helvetica,sans-Serif" font-size="14.00">src/components/Chat/Chat.tsx</text>
</g>
<!-- 733cdc67&#45;3660&#45;4b65&#45;8eff&#45;fff1cc66499e&#45;&gt;a0facefe&#45;9647&#45;45a1&#45;a49b&#45;471ee730a370 -->
<g id="edge2" class="edge">
<title>733cdc67&#45;3660&#45;4b65&#45;8eff&#45;fff1cc66499e&#45;&gt;a0facefe&#45;9647&#45;45a1&#45;a49b&#45;471ee730a370</title>
<path fill="none" stroke="black" d="M449.64,-99.87C470.27,-99.87 490.89,-99.87 511.52,-99.87"/>
<polygon fill="black" stroke="black" points="511.64,-103.37 521.64,-99.87 511.64,-96.37 511.64,-103.37"/>
</g>
<!-- 13f709b1&#45;d3fe&#45;4107&#45;ba46&#45;55ad010affc6 -->
<g id="node6" class="node">
<title>13f709b1&#45;d3fe&#45;4107&#45;ba46&#45;55ad010affc6</title>
<polygon fill="#0ee832" stroke="black" points="455,-36 0,-36 0,0 455,0 455,-36"/>
<text text-anchor="middle" x="227.5" y="-14.3" font-family="Helvetica,sans-Serif" font-size="14.00">✓ Run GitHub Actions for `src/components/Chat/ChatInput.tsx`</text>
</g>
<!-- 733cdc67&#45;3660&#45;4b65&#45;8eff&#45;fff1cc66499e&#45;&gt;13f709b1&#45;d3fe&#45;4107&#45;ba46&#45;55ad010affc6 -->
<g id="edge1" class="edge">
<title>733cdc67&#45;3660&#45;4b65&#45;8eff&#45;fff1cc66499e&#45;&gt;13f709b1&#45;d3fe&#45;4107&#45;ba46&#45;55ad010affc6</title>
<path fill="none" stroke="black" stroke-dasharray="5,2" d="M251.71,-72.72C247.78,-63.99 243.39,-54.26 239.45,-45.51"/>
<polygon fill="black" stroke="black" points="242.53,-43.82 235.23,-36.15 236.15,-46.7 242.53,-43.82"/>
</g>
<!-- 2619fe79&#45;fa8f&#45;4919&#45;9375&#45;e780f03cb0e2 -->
<g id="node5" class="node">
<title>2619fe79&#45;fa8f&#45;4919&#45;9375&#45;e780f03cb0e2</title>
<ellipse fill="white" stroke="black" cx="1069.5" cy="-99.87" rx="152.06" ry="26.74"/>
<text text-anchor="middle" x="1069.5" y="-103.67" font-family="Helvetica,sans-Serif" font-size="14.00">▶ Modify</text>
<text text-anchor="middle" x="1069.5" y="-88.67" font-family="Helvetica,sans-Serif" font-size="14.00">src/pages/api/getContexts.ts</text>
</g>
<!-- a0facefe&#45;9647&#45;45a1&#45;a49b&#45;471ee730a370&#45;&gt;2619fe79&#45;fa8f&#45;4919&#45;9375&#45;e780f03cb0e2 -->
<g id="edge4" class="edge">
<title>a0facefe&#45;9647&#45;45a1&#45;a49b&#45;471ee730a370&#45;&gt;2619fe79&#45;fa8f&#45;4919&#45;9375&#45;e780f03cb0e2</title>
<path fill="none" stroke="black" d="M841.4,-99.87C863.29,-99.87 885.18,-99.87 907.08,-99.87"/>
<polygon fill="black" stroke="black" points="907.14,-103.37 917.14,-99.87 907.14,-96.37 907.14,-103.37"/>
</g>
<!-- 810785ef&#45;38f7&#45;4705&#45;813d&#45;666631f465eb -->
<g id="node7" class="node">
<title>810785ef&#45;38f7&#45;4705&#45;813d&#45;666631f465eb</title>
<polygon fill="white" stroke="black" points="890,-36 473,-36 473,0 890,0 890,-36"/>
<text text-anchor="middle" x="681.5" y="-14.3" font-family="Helvetica,sans-Serif" font-size="14.00">▶ Run GitHub Actions for `src/components/Chat/Chat.tsx`</text>
</g>
<!-- a0facefe&#45;9647&#45;45a1&#45;a49b&#45;471ee730a370&#45;&gt;810785ef&#45;38f7&#45;4705&#45;813d&#45;666631f465eb -->
<g id="edge3" class="edge">
<title>a0facefe&#45;9647&#45;45a1&#45;a49b&#45;471ee730a370&#45;&gt;810785ef&#45;38f7&#45;4705&#45;813d&#45;666631f465eb</title>
<path fill="none" stroke="black" stroke-dasharray="5,2" d="M681.5,-72.72C681.5,-64.27 681.5,-54.89 681.5,-46.36"/>
<polygon fill="black" stroke="black" points="685,-46.15 681.5,-36.15 678,-46.15 685,-46.15"/>
</g>
<!-- 2619fe79&#45;fa8f&#45;4919&#45;9375&#45;e780f03cb0e2&#45;&gt;end -->
<g id="edge7" class="edge">
<title>2619fe79&#45;fa8f&#45;4919&#45;9375&#45;e780f03cb0e2&#45;&gt;end</title>
<path fill="none" stroke="black" d="M1221.56,-99.87C1241.33,-99.87 1258.28,-99.87 1268.66,-99.87"/>
<polygon fill="black" stroke="black" points="1268.85,-103.37 1278.85,-99.87 1268.85,-96.37 1268.85,-103.37"/>
<text text-anchor="middle" x="1250.26" y="-106.67" font-family="Helvetica,sans-Serif" font-size="14.00">Finish</text>
</g>
<!-- e2a43020&#45;8ac6&#45;4941&#45;b20e&#45;062d8ab89c43 -->
<g id="node8" class="node">
<title>e2a43020&#45;8ac6&#45;4941&#45;b20e&#45;062d8ab89c43</title>
<polygon fill="white" stroke="black" points="1313.5,-36 907.5,-36 907.5,0 1313.5,0 1313.5,-36"/>
<text text-anchor="middle" x="1110.5" y="-14.3" font-family="Helvetica,sans-Serif" font-size="14.00">▶ Run GitHub Actions for `src/pages/api/getContexts.ts`</text>
</g>
<!-- 2619fe79&#45;fa8f&#45;4919&#45;9375&#45;e780f03cb0e2&#45;&gt;e2a43020&#45;8ac6&#45;4941&#45;b20e&#45;062d8ab89c43 -->
<g id="edge5" class="edge">
<title>2619fe79&#45;fa8f&#45;4919&#45;9375&#45;e780f03cb0e2&#45;&gt;e2a43020&#45;8ac6&#45;4941&#45;b20e&#45;062d8ab89c43</title>
<path fill="none" stroke="black" stroke-dasharray="5,2" d="M1082.92,-72.72C1087.45,-63.9 1092.51,-54.05 1097.04,-45.23"/>
<polygon fill="black" stroke="black" points="1100.25,-46.64 1101.7,-36.15 1094.02,-43.44 1100.25,-46.64"/>
</g>
</g>
</svg>
