<?xml version="1.0" encoding="UTF-8" standalone="no"?>
<!DOCTYPE svg PUBLIC "-//W3C//DTD SVG 1.1//EN"
 "http://www.w3.org/Graphics/SVG/1.1/DTD/svg11.dtd">
<!-- Generated by graphviz version 2.43.0 (0)
 -->
<!-- Title: %3 Pages: 1 -->
<svg width="1391pt" height="238pt"
 viewBox="0.00 0.00 1390.50 237.74" xmlns="http://www.w3.org/2000/svg" xmlns:xlink="http://www.w3.org/1999/xlink">
<g id="graph0" class="graph" transform="scale(1 1) rotate(0) translate(36 201.74)">
<title>%3</title>
<polygon fill="dimgray" stroke="transparent" points="-36,36 -36,-201.74 1354.5,-201.74 1354.5,36 -36,36"/>
<text text-anchor="middle" x="659.25" y="-150.54" font-family="Helvetica,sans-Serif" font-size="14.00">Sweep&#39;s Plan &amp; Progress</text>
<!-- start -->
<g id="node1" class="node">
<title>start</title>
</g>
<!-- 733cdc67&#45;3660&#45;4b65&#45;8eff&#45;fff1cc66499e -->
<g id="node3" class="node">
<title>733cdc67&#45;3660&#45;4b65&#45;8eff&#45;fff1cc66499e</title>
<ellipse fill="#0ee832" stroke="black" cx="264.5" cy="-99.87" rx="185.94" ry="26.74"/>
<text text-anchor="middle" x="264.5" y="-103.67" font-family="Helvetica,sans-Serif" font-size="14.00">✓ Modify</text>
<text text-anchor="middle" x="264.5" y="-88.67" font-family="Helvetica,sans-Serif" font-size="14.00">src/components/Chat/ChatInput.tsx</text>
</g>
<!-- start&#45;&gt;733cdc67&#45;3660&#45;4b65&#45;8eff&#45;fff1cc66499e -->
<g id="edge6" class="edge">
<title>start&#45;&gt;733cdc67&#45;3660&#45;4b65&#45;8eff&#45;fff1cc66499e</title>
<path fill="none" stroke="black" d="M27.18,-99.87C30.58,-99.87 46.37,-99.87 68.32,-99.87"/>
<polygon fill="black" stroke="black" points="68.45,-103.37 78.45,-99.87 68.45,-96.37 68.45,-103.37"/>
<text text-anchor="middle" x="52.77" y="-106.67" font-family="Helvetica,sans-Serif" font-size="14.00">Start</text>
</g>
<!-- end -->
<g id="node2" class="node">
<title>end</title>
</g>
<!-- a0facefe&#45;9647&#45;45a1&#45;a49b&#45;471ee730a370 -->
<g id="node4" class="node">
<title>a0facefe&#45;9647&#45;45a1&#45;a49b&#45;471ee730a370</title>
<ellipse fill="#0ee832" stroke="black" cx="683.5" cy="-99.87" rx="159.61" ry="26.74"/>
<text text-anchor="middle" x="683.5" y="-103.67" font-family="Helvetica,sans-Serif" font-size="14.00">✓ Modify</text>
<text text-anchor="middle" x="683.5" y="-88.67" font-family="Helvetica,sans-Serif" font-size="14.00">src/components/Chat/Chat.tsx</text>
</g>
<!-- 733cdc67&#45;3660&#45;4b65&#45;8eff&#45;fff1cc66499e&#45;&gt;a0facefe&#45;9647&#45;45a1&#45;a49b&#45;471ee730a370 -->
<g id="edge2" class="edge">
<title>733cdc67&#45;3660&#45;4b65&#45;8eff&#45;fff1cc66499e&#45;&gt;a0facefe&#45;9647&#45;45a1&#45;a49b&#45;471ee730a370</title>
<path fill="none" stroke="black" d="M450.68,-99.87C471.52,-99.87 492.36,-99.87 513.2,-99.87"/>
<polygon fill="black" stroke="black" points="513.43,-103.37 523.43,-99.87 513.43,-96.37 513.43,-103.37"/>
</g>
<!-- 13f709b1&#45;d3fe&#45;4107&#45;ba46&#45;55ad010affc6 -->
<g id="node6" class="node">
<title>13f709b1&#45;d3fe&#45;4107&#45;ba46&#45;55ad010affc6</title>
<polygon fill="#0ee832" stroke="black" points="455,-36 0,-36 0,0 455,0 455,-36"/>
<text text-anchor="middle" x="227.5" y="-14.3" font-family="Helvetica,sans-Serif" font-size="14.00">✓ Run GitHub Actions for `src/components/Chat/ChatInput.tsx`</text>
</g>
<!-- 733cdc67&#45;3660&#45;4b65&#45;8eff&#45;fff1cc66499e&#45;&gt;13f709b1&#45;d3fe&#45;4107&#45;ba46&#45;55ad010affc6 -->
<g id="edge1" class="edge">
<title>733cdc67&#45;3660&#45;4b65&#45;8eff&#45;fff1cc66499e&#45;&gt;13f709b1&#45;d3fe&#45;4107&#45;ba46&#45;55ad010affc6</title>
<path fill="none" stroke="black" stroke-dasharray="5,2" d="M252.38,-72.72C248.3,-63.9 243.74,-54.05 239.65,-45.23"/>
<polygon fill="black" stroke="black" points="242.82,-43.75 235.44,-36.15 236.47,-46.69 242.82,-43.75"/>
</g>
<!-- 2619fe79&#45;fa8f&#45;4919&#45;9375&#45;e780f03cb0e2 -->
<g id="node5" class="node">
<title>2619fe79&#45;fa8f&#45;4919&#45;9375&#45;e780f03cb0e2</title>
<ellipse fill="white" stroke="black" cx="1073.5" cy="-99.87" rx="152.06" ry="26.74"/>
<text text-anchor="middle" x="1073.5" y="-103.67" font-family="Helvetica,sans-Serif" font-size="14.00">▶ Modify</text>
<text text-anchor="middle" x="1073.5" y="-88.67" font-family="Helvetica,sans-Serif" font-size="14.00">src/pages/api/getContexts.ts</text>
</g>
<!-- a0facefe&#45;9647&#45;45a1&#45;a49b&#45;471ee730a370&#45;&gt;2619fe79&#45;fa8f&#45;4919&#45;9375&#45;e780f03cb0e2 -->
<g id="edge4" class="edge">
<title>a0facefe&#45;9647&#45;45a1&#45;a49b&#45;471ee730a370&#45;&gt;2619fe79&#45;fa8f&#45;4919&#45;9375&#45;e780f03cb0e2</title>
<path fill="none" stroke="black" d="M843.46,-99.87C866.03,-99.87 888.6,-99.87 911.17,-99.87"/>
<polygon fill="black" stroke="black" points="911.19,-103.37 921.19,-99.87 911.19,-96.37 911.19,-103.37"/>
</g>
<!-- 810785ef&#45;38f7&#45;4705&#45;813d&#45;666631f465eb -->
<g id="node7" class="node">
<title>810785ef&#45;38f7&#45;4705&#45;813d&#45;666631f465eb</title>
<polygon fill="yellow" stroke="black" points="894,-36 473,-36 473,0 894,0 894,-36"/>
<text text-anchor="middle" x="683.5" y="-14.3" font-family="Helvetica,sans-Serif" font-size="14.00">⋯ Run GitHub Actions for `src/components/Chat/Chat.tsx`</text>
</g>
<!-- a0facefe&#45;9647&#45;45a1&#45;a49b&#45;471ee730a370&#45;&gt;810785ef&#45;38f7&#45;4705&#45;813d&#45;666631f465eb -->
<g id="edge3" class="edge">
<title>a0facefe&#45;9647&#45;45a1&#45;a49b&#45;471ee730a370&#45;&gt;810785ef&#45;38f7&#45;4705&#45;813d&#45;666631f465eb</title>
<path fill="none" stroke="black" stroke-dasharray="5,2" d="M683.5,-72.72C683.5,-64.27 683.5,-54.89 683.5,-46.36"/>
<polygon fill="black" stroke="black" points="687,-46.15 683.5,-36.15 680,-46.15 687,-46.15"/>
</g>
<!-- 2619fe79&#45;fa8f&#45;4919&#45;9375&#45;e780f03cb0e2&#45;&gt;end -->
<g id="edge7" class="edge">
<title>2619fe79&#45;fa8f&#45;4919&#45;9375&#45;e780f03cb0e2&#45;&gt;end</title>
<path fill="none" stroke="black" d="M1225.56,-99.87C1245.33,-99.87 1262.28,-99.87 1272.66,-99.87"/>
<polygon fill="black" stroke="black" points="1272.85,-103.37 1282.85,-99.87 1272.85,-96.37 1272.85,-103.37"/>
<text text-anchor="middle" x="1254.26" y="-106.67" font-family="Helvetica,sans-Serif" font-size="14.00">Finish</text>
</g>
<!-- e2a43020&#45;8ac6&#45;4941&#45;b20e&#45;062d8ab89c43 -->
<g id="node8" class="node">
<title>e2a43020&#45;8ac6&#45;4941&#45;b20e&#45;062d8ab89c43</title>
<polygon fill="white" stroke="black" points="1318.5,-36 912.5,-36 912.5,0 1318.5,0 1318.5,-36"/>
<text text-anchor="middle" x="1115.5" y="-14.3" font-family="Helvetica,sans-Serif" font-size="14.00">▶ Run GitHub Actions for `src/pages/api/getContexts.ts`</text>
</g>
<!-- 2619fe79&#45;fa8f&#45;4919&#45;9375&#45;e780f03cb0e2&#45;&gt;e2a43020&#45;8ac6&#45;4941&#45;b20e&#45;062d8ab89c43 -->
<g id="edge5" class="edge">
<title>2619fe79&#45;fa8f&#45;4919&#45;9375&#45;e780f03cb0e2&#45;&gt;e2a43020&#45;8ac6&#45;4941&#45;b20e&#45;062d8ab89c43</title>
<path fill="none" stroke="black" stroke-dasharray="5,2" d="M1087.25,-72.72C1091.89,-63.9 1097.07,-54.05 1101.71,-45.23"/>
<polygon fill="black" stroke="black" points="1104.93,-46.63 1106.48,-36.15 1098.73,-43.37 1104.93,-46.63"/>
</g>
</g>
</svg>
