<?xml version="1.0" encoding="UTF-8" standalone="no"?>
<!DOCTYPE svg PUBLIC "-//W3C//DTD SVG 1.1//EN"
 "http://www.w3.org/Graphics/SVG/1.1/DTD/svg11.dtd">
<!-- Generated by graphviz version 2.43.0 (0)
 -->
<!-- Title: %3 Pages: 1 -->
<svg width="1389pt" height="238pt"
 viewBox="0.00 0.00 1389.00 237.74" xmlns="http://www.w3.org/2000/svg" xmlns:xlink="http://www.w3.org/1999/xlink">
<g id="graph0" class="graph" transform="scale(1 1) rotate(0) translate(36 201.74)">
<title>%3</title>
<polygon fill="dimgray" stroke="transparent" points="-36,36 -36,-201.74 1353,-201.74 1353,36 -36,36"/>
<text text-anchor="middle" x="658.5" y="-150.54" font-family="Helvetica,sans-Serif" font-size="14.00">Sweep&#39;s Plan &amp; Progress</text>
<!-- start -->
<g id="node1" class="node">
<title>start</title>
</g>
<!-- 733cdc67&#45;3660&#45;4b65&#45;8eff&#45;fff1cc66499e -->
<g id="node3" class="node">
<title>733cdc67&#45;3660&#45;4b65&#45;8eff&#45;fff1cc66499e</title>
<ellipse fill="#0ee832" stroke="black" cx="266" cy="-99.87" rx="185.94" ry="26.74"/>
<text text-anchor="middle" x="266" y="-103.67" font-family="Helvetica,sans-Serif" font-size="14.00">✓ Modify</text>
<text text-anchor="middle" x="266" y="-88.67" font-family="Helvetica,sans-Serif" font-size="14.00">src/components/Chat/ChatInput.tsx</text>
</g>
<!-- start&#45;&gt;733cdc67&#45;3660&#45;4b65&#45;8eff&#45;fff1cc66499e -->
<g id="edge6" class="edge">
<title>start&#45;&gt;733cdc67&#45;3660&#45;4b65&#45;8eff&#45;fff1cc66499e</title>
<path fill="none" stroke="black" d="M28.68,-99.87C32.08,-99.87 47.87,-99.87 69.82,-99.87"/>
<polygon fill="black" stroke="black" points="69.95,-103.37 79.95,-99.87 69.95,-96.37 69.95,-103.37"/>
<text text-anchor="middle" x="54.27" y="-106.67" font-family="Helvetica,sans-Serif" font-size="14.00">Start</text>
</g>
<!-- end -->
<g id="node2" class="node">
<title>end</title>
</g>
<!-- a0facefe&#45;9647&#45;45a1&#45;a49b&#45;471ee730a370 -->
<g id="node4" class="node">
<title>a0facefe&#45;9647&#45;45a1&#45;a49b&#45;471ee730a370</title>
<ellipse fill="white" stroke="black" cx="685" cy="-99.87" rx="159.61" ry="26.74"/>
<text text-anchor="middle" x="685" y="-103.67" font-family="Helvetica,sans-Serif" font-size="14.00">▶ Modify</text>
<text text-anchor="middle" x="685" y="-88.67" font-family="Helvetica,sans-Serif" font-size="14.00">src/components/Chat/Chat.tsx</text>
</g>
<!-- 733cdc67&#45;3660&#45;4b65&#45;8eff&#45;fff1cc66499e&#45;&gt;a0facefe&#45;9647&#45;45a1&#45;a49b&#45;471ee730a370 -->
<g id="edge2" class="edge">
<title>733cdc67&#45;3660&#45;4b65&#45;8eff&#45;fff1cc66499e&#45;&gt;a0facefe&#45;9647&#45;45a1&#45;a49b&#45;471ee730a370</title>
<path fill="none" stroke="black" d="M452.18,-99.87C473.02,-99.87 493.86,-99.87 514.7,-99.87"/>
<polygon fill="black" stroke="black" points="514.93,-103.37 524.93,-99.87 514.93,-96.37 514.93,-103.37"/>
</g>
<!-- 13f709b1&#45;d3fe&#45;4107&#45;ba46&#45;55ad010affc6 -->
<g id="node6" class="node">
<title>13f709b1&#45;d3fe&#45;4107&#45;ba46&#45;55ad010affc6</title>
<polygon fill="yellow" stroke="black" points="458,-36 0,-36 0,0 458,0 458,-36"/>
<text text-anchor="middle" x="229" y="-14.3" font-family="Helvetica,sans-Serif" font-size="14.00">⋯ Run GitHub Actions for `src/components/Chat/ChatInput.tsx`</text>
</g>
<!-- 733cdc67&#45;3660&#45;4b65&#45;8eff&#45;fff1cc66499e&#45;&gt;13f709b1&#45;d3fe&#45;4107&#45;ba46&#45;55ad010affc6 -->
<g id="edge1" class="edge">
<title>733cdc67&#45;3660&#45;4b65&#45;8eff&#45;fff1cc66499e&#45;&gt;13f709b1&#45;d3fe&#45;4107&#45;ba46&#45;55ad010affc6</title>
<path fill="none" stroke="black" stroke-dasharray="5,2" d="M253.88,-72.72C249.8,-63.9 245.24,-54.05 241.15,-45.23"/>
<polygon fill="black" stroke="black" points="244.32,-43.75 236.94,-36.15 237.97,-46.69 244.32,-43.75"/>
</g>
<!-- 2619fe79&#45;fa8f&#45;4919&#45;9375&#45;e780f03cb0e2 -->
<g id="node5" class="node">
<title>2619fe79&#45;fa8f&#45;4919&#45;9375&#45;e780f03cb0e2</title>
<ellipse fill="white" stroke="black" cx="1073" cy="-99.87" rx="152.06" ry="26.74"/>
<text text-anchor="middle" x="1073" y="-103.67" font-family="Helvetica,sans-Serif" font-size="14.00">▶ Modify</text>
<text text-anchor="middle" x="1073" y="-88.67" font-family="Helvetica,sans-Serif" font-size="14.00">src/pages/api/getContexts.ts</text>
</g>
<!-- a0facefe&#45;9647&#45;45a1&#45;a49b&#45;471ee730a370&#45;&gt;2619fe79&#45;fa8f&#45;4919&#45;9375&#45;e780f03cb0e2 -->
<g id="edge4" class="edge">
<title>a0facefe&#45;9647&#45;45a1&#45;a49b&#45;471ee730a370&#45;&gt;2619fe79&#45;fa8f&#45;4919&#45;9375&#45;e780f03cb0e2</title>
<path fill="none" stroke="black" d="M844.9,-99.87C866.79,-99.87 888.68,-99.87 910.58,-99.87"/>
<polygon fill="black" stroke="black" points="910.64,-103.37 920.64,-99.87 910.64,-96.37 910.64,-103.37"/>
</g>
<!-- 810785ef&#45;38f7&#45;4705&#45;813d&#45;666631f465eb -->
<g id="node7" class="node">
<title>810785ef&#45;38f7&#45;4705&#45;813d&#45;666631f465eb</title>
<polygon fill="white" stroke="black" points="893.5,-36 476.5,-36 476.5,0 893.5,0 893.5,-36"/>
<text text-anchor="middle" x="685" y="-14.3" font-family="Helvetica,sans-Serif" font-size="14.00">▶ Run GitHub Actions for `src/components/Chat/Chat.tsx`</text>
</g>
<!-- a0facefe&#45;9647&#45;45a1&#45;a49b&#45;471ee730a370&#45;&gt;810785ef&#45;38f7&#45;4705&#45;813d&#45;666631f465eb -->
<g id="edge3" class="edge">
<title>a0facefe&#45;9647&#45;45a1&#45;a49b&#45;471ee730a370&#45;&gt;810785ef&#45;38f7&#45;4705&#45;813d&#45;666631f465eb</title>
<path fill="none" stroke="black" stroke-dasharray="5,2" d="M685,-72.72C685,-64.27 685,-54.89 685,-46.36"/>
<polygon fill="black" stroke="black" points="688.5,-46.15 685,-36.15 681.5,-46.15 688.5,-46.15"/>
</g>
<!-- 2619fe79&#45;fa8f&#45;4919&#45;9375&#45;e780f03cb0e2&#45;&gt;end -->
<g id="edge7" class="edge">
<title>2619fe79&#45;fa8f&#45;4919&#45;9375&#45;e780f03cb0e2&#45;&gt;end</title>
<path fill="none" stroke="black" d="M1225.06,-99.87C1244.83,-99.87 1261.78,-99.87 1272.16,-99.87"/>
<polygon fill="black" stroke="black" points="1272.35,-103.37 1282.35,-99.87 1272.35,-96.37 1272.35,-103.37"/>
<text text-anchor="middle" x="1253.76" y="-106.67" font-family="Helvetica,sans-Serif" font-size="14.00">Finish</text>
</g>
<!-- e2a43020&#45;8ac6&#45;4941&#45;b20e&#45;062d8ab89c43 -->
<g id="node8" class="node">
<title>e2a43020&#45;8ac6&#45;4941&#45;b20e&#45;062d8ab89c43</title>
<polygon fill="white" stroke="black" points="1317,-36 911,-36 911,0 1317,0 1317,-36"/>
<text text-anchor="middle" x="1114" y="-14.3" font-family="Helvetica,sans-Serif" font-size="14.00">▶ Run GitHub Actions for `src/pages/api/getContexts.ts`</text>
</g>
<!-- 2619fe79&#45;fa8f&#45;4919&#45;9375&#45;e780f03cb0e2&#45;&gt;e2a43020&#45;8ac6&#45;4941&#45;b20e&#45;062d8ab89c43 -->
<g id="edge5" class="edge">
<title>2619fe79&#45;fa8f&#45;4919&#45;9375&#45;e780f03cb0e2&#45;&gt;e2a43020&#45;8ac6&#45;4941&#45;b20e&#45;062d8ab89c43</title>
<path fill="none" stroke="black" stroke-dasharray="5,2" d="M1086.42,-72.72C1090.95,-63.9 1096.01,-54.05 1100.54,-45.23"/>
<polygon fill="black" stroke="black" points="1103.75,-46.64 1105.2,-36.15 1097.52,-43.44 1103.75,-46.64"/>
</g>
</g>
</svg>
